<svg viewBox="0 0 15 29" version="1.1" xmlns="http://www.w3.org/2000/svg">
    <defs></defs>
    <g id="Symbols" stroke="none">
        <g id="D/Footer" transform="translate(-1125.000000, -247.000000)">
            <g transform="translate(121.000000, 221.000000)" id="social_icons-">
                <g transform="translate(1004.000000, 26.000000)">
                    <path d="M3.72576508,15.3591498 L0,15.3591498 L0,10.470097 L3.72576508,10.470097 L3.72576508,6.29440482 C3.72576508,3.01305157 5.92661932,0 10.9977007,0 C13.0509918,0 14.5696058,0.189684273 14.5696058,0.189684273 L14.4496936,4.75503384 C14.4496936,4.75503384 12.9012384,4.74052392 11.2115167,4.74052392 C9.38271884,4.74052392 9.08978265,5.552552 9.08978265,6.90065581 C9.08978265,7.96621182 9.08978265,4.62945705 9.08978265,10.4703608 L14.5950666,10.4703608 L14.355516,15.3594136 L9.08978265,15.3594136 L9.08978265,28.9378 L3.72576508,28.9378 L3.72576508,15.3591498 Z" id="facebook"></path>
                </g>
            </g>
        </g>
    </g>
</svg>