<svg viewBox="0 0 27 22" version="1.1" xmlns="http://www.w3.org/2000/svg" xmlns:xlink="http://www.w3.org/1999/xlink">
    <defs></defs>
    <g id="Symbols" stroke="none">
        <g id="D/Footer" transform="translate(-1189.000000, -250.000000)">
            <g transform="translate(121.000000, 221.000000)" id="social_icons-">
                <g transform="translate(1004.000000, 26.000000)">
                    <path d="M87.8186059,6.47877073 C88.9621852,5.79143569 89.8406258,4.70304242 90.2541287,3.40606639 C89.1837191,4.04264312 87.99829,4.50474667 86.7364513,4.75380072 C85.7261164,3.67434091 84.2864836,3 82.6932215,3 C79.6341368,3 77.1537942,5.48661519 77.1537942,8.55376996 C77.1537942,8.98907312 77.202799,9.41300643 77.2971635,9.81947888 C72.6934165,9.58788569 68.6118469,7.37671886 65.8798656,4.01651952 C65.403048,4.83677362 65.1298094,5.79075891 65.1298094,6.80863199 C65.1298094,8.73555234 66.1077445,10.4354816 67.594087,11.4314271 C66.6859466,11.4025964 65.8319408,11.1527302 65.0851246,10.7367828 C65.0845846,10.7599286 65.0845846,10.7832098 65.0845846,10.8066263 C65.0845846,13.4974928 66.994015,15.7422278 69.5280874,16.2525179 C69.0632847,16.3794813 68.5739121,16.4472944 68.0686097,16.4472944 C67.7115364,16.4472944 67.3645882,16.4123727 67.0262799,16.3476728 C67.7313813,18.5541022 69.7768911,20.1599594 72.200939,20.2046267 C70.3051435,21.6943489 67.9167354,22.5821454 65.3213734,22.5821454 C64.8742556,22.5821454 64.4333478,22.5558864 64,22.5044513 C66.4514527,24.080395 69.3632532,25 72.4913225,25 C82.6801266,25 88.2518187,16.5370351 88.2518187,9.19765589 C88.2518187,8.95685852 88.2464188,8.71741471 88.2357538,8.47905374 C89.3183134,7.69615775 90.2573687,6.71794383 91,5.60423909 C90.006675,6.04603931 88.9389653,6.34449811 87.8186059,6.47877073 Z" id="twitter"></path>
                </g>
            </g>
        </g>
    </g>
</svg>