<svg viewBox="0 0 24 24" version="1.1" xmlns="http://www.w3.org/2000/svg">
    <defs></defs>
    <g id="Symbols" stroke="none">
        <g id="D/Footer" transform="translate(-1174.000000, -271.000000)">
            <g transform="translate(121.000000, 129.000000)" id="social_icons-">
                <g transform="translate(952.000000, 140.000000)">
                    <path d="M124.927141,9.05223903 C124.985586,10.3321346 124.9994,10.7407771 124.9994,13.9997238 C124.9994,17.2586705 124.985586,17.6672654 124.927141,18.947161 C124.868934,20.2243891 124.666065,21.0966901 124.369407,21.8599595 C124.062747,22.6490935 123.652485,23.3182402 122.985386,23.9853388 C122.31824,24.6524849 121.649046,25.062747 120.859959,25.3694551 C120.096642,25.6660651 119.224389,25.8689335 117.947113,25.9271885 C116.667218,25.9855865 116.258623,25.9994 112.999676,25.9994 C109.74073,25.9994 109.332087,25.9855865 108.052239,25.9271885 C106.774963,25.8689335 105.90271,25.6660651 105.139393,25.3694551 C104.350307,25.062747 103.681112,24.6524849 103.014014,23.9853388 C102.346867,23.3182402 101.936605,22.6490458 101.629945,21.8599595 C101.333287,21.0966901 101.130466,20.2243891 101.072164,18.947161 C101.013766,17.6672654 101,17.2586705 101,13.9997238 C101,10.7407771 101.013766,10.3321346 101.072164,9.05223903 C101.130466,7.77496325 101.333287,6.90270987 101.629945,6.13944053 C101.936605,5.35035417 102.346867,4.68115978 103.014014,4.01401361 C103.681112,3.34691507 104.350307,2.9366054 105.139393,2.62999253 C105.90271,2.33333492 106.774963,2.13046647 108.052239,2.07221145 C109.332087,2.01381354 109.74073,2 112.999676,2 C116.258623,2 116.667218,2.01381354 117.947113,2.07221145 C119.224389,2.13046647 120.096642,2.33333492 120.859959,2.62999253 C121.649046,2.9366054 122.31824,3.34691507 122.985386,4.01401361 C123.652485,4.68115978 124.062747,5.35035417 124.369407,6.13944053 C124.666065,6.90270987 124.868934,7.77496325 124.927141,9.05223903 Z M122.767275,18.8485609 C122.825006,17.5832886 122.837248,17.2037498 122.837248,13.9997238 C122.837248,10.7956502 122.825006,10.4161114 122.767275,9.15079147 C122.713927,7.98083257 122.518441,7.34545753 122.354155,6.92262042 C122.136425,6.36250533 121.876398,5.96277017 121.456514,5.54288629 C121.03663,5.12300242 120.636847,4.86292687 120.076732,4.64524459 C119.653895,4.48091114 119.01852,4.28542578 117.848561,4.23207695 C116.583241,4.1743459 116.20375,4.16210425 112.999676,4.16210425 C109.795603,4.16210425 109.416111,4.1743459 108.150744,4.23207695 C106.980833,4.28542578 106.345458,4.48091114 105.922573,4.64524459 C105.362458,4.86292687 104.962723,5.12300242 104.542839,5.54288629 C104.122955,5.96277017 103.862879,6.36250533 103.645197,6.92262042 C103.480911,7.34545753 103.285426,7.98083257 103.232029,9.15079147 C103.174298,10.4161114 103.162104,10.7956502 103.162104,13.9997238 C103.162104,17.2037498 103.174298,17.5832886 103.232029,18.8486085 C103.285426,20.0185674 103.480911,20.6539425 103.645197,21.0767796 C103.862879,21.6368947 104.122955,22.0366298 104.542839,22.4565613 C104.962723,22.8764452 105.362458,23.1364731 105.922573,23.3541554 C106.345458,23.5184889 106.980833,23.7139742 108.150791,23.767323 C109.415921,23.8250541 109.795364,23.8372958 112.999676,23.8372958 C116.20394,23.8372958 116.583431,23.8250541 117.848561,23.767323 C119.01852,23.7139742 119.653895,23.5184889 120.076732,23.3541554 C120.636847,23.1364731 121.03663,22.8764452 121.456514,22.4565613 C121.876398,22.0366298 122.136425,21.6368947 122.354155,21.0767796 C122.518441,20.6539425 122.713927,20.0185674 122.767275,18.8485609 Z M120.845098,7.59424408 C120.845098,8.38947508 120.200435,9.03418617 119.405156,9.03418617 C118.609877,9.03418617 117.965166,8.38947508 117.965166,7.59424408 C117.965166,6.79896545 118.609877,6.15430199 119.405156,6.15430199 C120.200435,6.15430199 120.845098,6.79896545 120.845098,7.59424408 Z M112.999676,7.83769575 C116.402855,7.83769575 119.161657,10.5964971 119.161657,13.9997238 C119.161657,17.4029029 116.402855,20.1617042 112.999676,20.1617042 C109.596497,20.1617042 106.837648,17.4029029 106.837648,13.9997238 C106.837648,10.5964971 109.596497,7.83769575 112.999676,7.83769575 Z M112.999676,17.9996 C115.208746,17.9996 116.9996,16.2087941 116.9996,13.9997238 C116.9996,11.7906059 115.208746,9.9998 112.999676,9.9998 C110.790606,9.9998 108.999752,11.7906059 108.999752,13.9997238 C108.999752,16.2087941 110.790606,17.9996 112.999676,17.9996 Z" id="instagram"></path>
                </g>
            </g>
        </g>
    </g>
</svg>